<svg width="17" height="20" viewBox="0 0 17 20" fill="none" xmlns="http://www.w3.org/2000/svg">
<path d="M12.6684 3.65143C11.7144 3.24182 10.5842 3.22618 8.94361 3.60584L8.91808 3.61125L8.12326 0.786358L6.45787 1.17452L7.25597 4.00459C6.75935 4.12497 6.21126 4.25754 5.67415 4.39352L4.87649 1.54025L3.20852 1.92633L3.99987 4.78752C3.41729 4.94517 0.586868 5.56122 0.586868 5.56122L1.01958 7.22452L3.18197 6.76633L5.51106 15.0898L3.36908 15.5464L3.81883 17.2387C3.81883 17.2387 6.65334 16.6549 7.29843 16.5344L8.09472 19.4114L9.76011 19.0232L8.96863 16.1897C9.52899 16.0805 10.0848 15.9462 10.572 15.8468L11.3464 18.6653L13.0118 18.2771L12.2424 15.5043C14.0671 15.0356 15.261 14.3857 15.8868 13.5044C16.1498 13.1218 16.3231 12.6937 16.3959 12.247C16.4686 11.8003 16.4393 11.3447 16.3096 10.9088C15.8285 9.17104 14.1581 8.57599 12.8754 8.58207L12.8678 8.54815C14.0777 7.78415 14.6142 6.60631 14.3012 5.47858C14.0449 4.55193 13.4532 3.94682 12.6684 3.65143ZM11.9484 11.7536C12.2296 12.7694 11.5242 13.726 9.96416 14.0897L8.62899 14.3969L7.68703 11.013C8.09683 10.8401 8.525 10.7061 8.96482 10.6131C10.4536 10.272 11.6079 10.5209 11.9484 11.7536ZM10.6865 6.81704C10.7677 7.08875 10.7702 7.37509 10.6936 7.64793C10.617 7.92077 10.464 8.17073 10.2496 8.37328C9.90943 8.71916 9.39071 8.99367 8.70847 9.15098L8.69903 9.15595L7.37116 9.46276L6.43203 6.07735C6.84168 5.90605 7.26943 5.77342 7.70862 5.68151C7.71428 5.67852 7.71806 5.67653 7.72373 5.67354C8.39369 5.52271 8.99229 5.48991 9.47995 5.6121C10.0735 5.76237 10.5025 6.14412 10.6865 6.81704Z" fill="white"/>
</svg>
