<svg width="16" height="26" viewBox="0 0 16 26" fill="none" xmlns="http://www.w3.org/2000/svg">
<path d="M15.1483 11.9581C15.3157 12.1256 15.3994 12.3181 15.3994 12.5357C15.3994 12.7533 15.3157 12.9459 15.1483 13.1133L3.44629 24.8153C3.27888 24.9827 3.08636 25.0664 2.86872 25.0664C2.65109 25.0664 2.45857 24.9827 2.29116 24.8153L1.03557 23.5597C0.868164 23.3923 0.784459 23.1998 0.784459 22.9821C0.784459 22.7645 0.868164 22.572 1.03557 22.4046L10.9044 12.5357L1.03557 2.66685C0.868164 2.49944 0.784459 2.30692 0.784459 2.08928C0.784459 1.87165 0.868164 1.67913 1.03557 1.51172L2.29116 0.256136C2.45857 0.0887255 2.65109 0.00502002 2.86872 0.00502002C3.08636 0.00502002 3.27888 0.0887255 3.44629 0.256136L15.1483 11.9581Z" fill="#959595"/>
</svg>
