<svg width="16" height="26" viewBox="0 0 16 26" fill="none" xmlns="http://www.w3.org/2000/svg">
<path d="M14.9519 1.51172C15.1193 1.67913 15.203 1.87165 15.203 2.08928C15.203 2.30692 15.1193 2.49944 14.9519 2.66685L5.08301 12.5357L14.9519 22.4046C15.1193 22.572 15.203 22.7645 15.203 22.9821C15.203 23.1998 15.1193 23.3923 14.9519 23.5597L13.6963 24.8153C13.5289 24.9827 13.3364 25.0664 13.1187 25.0664C12.9011 25.0664 12.7086 24.9827 12.5412 24.8153L0.839146 13.1133C0.671736 12.9459 0.58803 12.7533 0.58803 12.5357C0.58803 12.3181 0.671736 12.1256 0.839146 11.9581L12.5412 0.256136C12.7086 0.0887255 12.9011 0.00502002 13.1187 0.00502002C13.3364 0.00502002 13.5289 0.0887255 13.6963 0.256136L14.9519 1.51172Z" fill="#959595"/>
</svg>
