<svg width="17" height="20" viewBox="0 0 17 20" fill="none" xmlns="http://www.w3.org/2000/svg">
<path d="M15.6499 6.45669C15.0405 5.65658 14.0579 5.12049 12.4086 4.69525L12.3832 4.68819L13.2532 1.84348L11.5773 1.41421L10.7074 4.26496C10.2051 4.14102 9.65091 4.00397 9.10445 3.87499L9.98762 1.00408L8.3107 0.571777L7.41759 3.44672C6.81924 3.31572 3.99529 2.54786 3.99529 2.54786L3.45214 4.20652L5.60267 4.80408L3.02822 13.18L0.896458 12.5905L0.352203 14.2824C0.352203 14.2824 3.1618 15.0805 3.79437 15.273L2.89685 18.164L4.57267 18.5933L5.45032 15.7426C6.0023 15.9058 6.56422 16.0449 7.04666 16.1829L6.16238 19.0125L7.8382 19.4418L8.7015 16.6545C10.5617 17.0868 11.9692 17.0687 13.007 16.585C13.4498 16.371 13.8393 16.0757 14.1509 15.7175C14.4625 15.3594 14.6894 14.9463 14.8175 14.5041C15.3595 12.7578 14.2246 11.4639 13.0964 10.8764L13.1085 10.8432C14.5934 10.7323 15.7172 9.94733 16.0683 8.81368C16.3575 7.88257 16.1742 7.07844 15.6499 6.45669ZM10.5242 13.2294C10.2073 14.2502 9.05808 14.7631 7.48824 14.361L6.14692 14.0134L7.1979 10.6104C7.65319 10.6481 8.10303 10.7285 8.54032 10.8502C10.0351 11.2392 10.9094 11.9909 10.5242 13.2294V13.2294ZM12.1558 8.31689C12.0764 8.59273 11.9197 8.84498 11.7012 9.04886C11.4827 9.25273 11.2098 9.40123 10.9094 9.47976C10.4193 9.62588 9.81209 9.62689 9.12653 9.44953H9.11549L7.78079 9.1049L8.83508 5.70193C9.28935 5.74104 9.73805 5.82241 10.1742 5.94479C10.1808 5.94479 10.1852 5.94479 10.1919 5.94479C10.8631 6.12214 11.4062 6.37003 11.7661 6.70257C12.2033 7.10867 12.3678 7.64173 12.1558 8.31689V8.31689Z" fill="white"/>
</svg>
