<svg width="16" height="16" viewBox="0 0 16 16" fill="none" xmlns="http://www.w3.org/2000/svg">
<path d="M3.50558 5.48978V15.444H0.190848V5.48978H3.50558ZM3.71652 2.41612C3.72321 2.90496 3.55246 3.31344 3.20424 3.64157C2.86272 3.96969 2.41071 4.13375 1.84821 4.13375H1.82813C1.27902 4.13375 0.837054 3.96969 0.502232 3.64157C0.167411 3.31344 0 2.90496 0 2.41612C0 1.92058 0.170759 1.5121 0.512277 1.19067C0.860491 0.862547 1.3125 0.698485 1.8683 0.698485C2.42411 0.698485 2.86942 0.862547 3.20424 1.19067C3.53906 1.5121 3.70982 1.92058 3.71652 2.41612ZM15.4286 9.73866V15.444H12.1239V10.1204C12.1239 9.41723 11.9866 8.86813 11.7121 8.47304C11.4442 8.07125 11.0223 7.87036 10.4464 7.87036C10.0246 7.87036 9.66964 7.98755 9.3817 8.22192C9.10045 8.4496 8.88951 8.7342 8.74888 9.07572C8.67522 9.27661 8.63839 9.54782 8.63839 9.88933V15.444H5.33371C5.3471 12.7721 5.35379 10.6059 5.35379 8.94514C5.35379 7.28442 5.35045 6.29335 5.34375 5.97192L5.33371 5.48978H8.63839V6.93621H8.6183C8.75223 6.72192 8.88951 6.53442 9.03013 6.37371C9.17076 6.21299 9.35826 6.03889 9.59263 5.85139C9.83371 5.66389 10.125 5.51991 10.4665 5.41947C10.8147 5.31232 11.1998 5.25875 11.6217 5.25875C12.7667 5.25875 13.6875 5.64045 14.3839 6.40384C15.0804 7.16054 15.4286 8.27215 15.4286 9.73866Z" fill="#BDBDBD"/>
</svg>
