<svg width="17" height="14" viewBox="0 0 17 14" fill="none" xmlns="http://www.w3.org/2000/svg">
<path d="M16.2723 2.31009C15.8237 2.96634 15.2813 3.52549 14.6451 3.98755C14.6518 4.0813 14.6551 4.22192 14.6551 4.40942C14.6551 5.27996 14.5279 6.15049 14.2734 7.02103C14.019 7.88487 13.6306 8.71523 13.1083 9.5121C12.5926 10.309 11.9766 11.0154 11.26 11.6315C10.5435 12.2409 9.67969 12.7297 8.66853 13.098C7.65737 13.4596 6.57589 13.6404 5.42411 13.6404C3.60938 13.6404 1.94866 13.155 0.441964 12.184C0.676339 12.2108 0.9375 12.2242 1.22545 12.2242C2.73214 12.2242 4.07478 11.7621 5.25335 10.838C4.55022 10.8246 3.92076 10.6103 3.36496 10.1951C2.80915 9.77326 2.42746 9.23755 2.21987 8.58799C2.44085 8.62148 2.64509 8.63822 2.83259 8.63822C3.12054 8.63822 3.40513 8.60139 3.68638 8.52773C2.93638 8.37371 2.31362 8.00206 1.81808 7.41277C1.32924 6.81679 1.08482 6.12706 1.08482 5.34357V5.3034C1.54018 5.55786 2.02902 5.69514 2.55134 5.71523C2.10938 5.42058 1.75781 5.03554 1.49665 4.56009C1.23549 4.08465 1.10491 3.56902 1.10491 3.01322C1.10491 2.42393 1.25223 1.87817 1.54688 1.37594C2.35714 2.37371 3.34152 3.17393 4.5 3.77661C5.66518 4.37259 6.91071 4.70407 8.23661 4.77103C8.18304 4.51656 8.15625 4.2688 8.15625 4.02773C8.15625 3.1304 8.47098 2.36701 9.10045 1.73755C9.73661 1.10139 10.5033 0.783306 11.4007 0.783306C12.3382 0.783306 13.1283 1.12482 13.7712 1.80786C14.5011 1.66723 15.1875 1.40607 15.8304 1.02438C15.5826 1.79447 15.1071 2.39045 14.404 2.81232C15.0268 2.74536 15.6496 2.57795 16.2723 2.31009Z" fill="#BDBDBD"/>
</svg>
