<svg width="18" height="19" viewBox="0 0 18 19" fill="none" xmlns="http://www.w3.org/2000/svg">
<path d="M14.8358 11.4161C14.4726 11.3293 14.098 11.2953 13.7244 11.3152C13.4532 11.3263 13.1847 11.2598 12.9527 11.124C12.7208 10.9883 12.5358 10.7894 12.4211 10.5525L12.3067 10.3233C12.202 10.1118 12.1568 9.87754 12.1755 9.64394C12.1942 9.41034 12.2761 9.18553 12.4131 8.99191L12.6478 8.66127C12.775 8.4778 12.948 8.32808 13.1511 8.22591C13.3541 8.12373 13.5806 8.07238 13.8096 8.07658C14.1278 8.08589 14.4458 8.05645 14.7563 7.98896C16.4075 7.63407 17.6627 6.26245 17.7897 4.63844C17.8339 4.08217 17.7477 3.52345 17.5376 3.00352C17.3275 2.48359 16.9989 2.01572 16.5759 1.63446C16.1528 1.25319 15.6463 0.968263 15.0936 0.800695C14.541 0.633127 13.9563 0.587201 13.3827 0.666307C11.8013 0.875715 10.2823 2.36967 10.0928 3.89614C9.98198 4.75631 10.1875 5.62669 10.6738 6.35613C10.9834 6.82013 10.9908 7.41254 10.6572 7.86056L10.355 8.26725C10.2243 8.44303 10.0515 8.58583 9.85118 8.6835C9.65089 8.78117 9.42907 8.83083 9.20457 8.82824C8.94803 8.82523 8.69742 8.75353 8.4808 8.62116C8.26418 8.4888 8.0901 8.301 7.97804 8.07878C7.6001 7.32355 6.96844 6.71326 6.18537 6.34674C5.4023 5.98022 4.51367 5.87894 3.66337 6.05928C2.81307 6.23963 2.05089 6.69105 1.50024 7.34044C0.949603 7.98983 0.642746 8.79917 0.629363 9.63741C0.615981 10.4756 0.896857 11.2937 1.42651 11.9591C1.95616 12.6244 2.70357 13.0982 3.54771 13.3036C4.39186 13.5091 5.28331 13.4341 6.07771 13.0909C6.87211 12.7478 7.52293 12.1565 7.9248 11.4128C8.04306 11.2017 8.21898 11.0258 8.43354 10.904C8.64809 10.7822 8.89312 10.7192 9.14218 10.7217H9.27897C9.50072 10.7217 9.71925 10.7727 9.91638 10.8705C10.1135 10.9682 10.2835 11.11 10.4122 11.2838L10.6234 11.5693C10.9542 12.0156 10.9502 12.6036 10.6492 13.0693C10.1782 13.7976 9.98351 14.6603 10.098 15.5111C10.2943 17.0282 11.815 18.5117 13.3855 18.72C13.9594 18.7989 14.5444 18.7526 15.0972 18.5846C15.65 18.4165 16.1566 18.131 16.5794 17.7492C17.0022 17.3673 17.3305 16.8988 17.54 16.3784C17.7495 15.8579 17.8348 15.2988 17.7897 14.7424C17.6627 13.1481 16.4481 11.798 14.8358 11.4161Z" fill="white"/>
</svg>
