<svg width="20" height="14" viewBox="0 0 20 14" fill="none" xmlns="http://www.w3.org/2000/svg">
<path d="M8.14174 9.54224L13.0033 7.03107L8.14174 4.48978V9.54224ZM10 0.883753C11.125 0.883753 12.2098 0.900494 13.2545 0.933976C14.3058 0.960761 15.0759 0.990895 15.5647 1.02438L16.298 1.06456C16.3047 1.06456 16.3616 1.07125 16.4688 1.08465C16.5759 1.09134 16.6529 1.10139 16.6998 1.11478C16.7467 1.12148 16.8237 1.13487 16.9308 1.15496C17.0446 1.17505 17.1417 1.20183 17.2221 1.23532C17.3025 1.2688 17.3962 1.31232 17.5033 1.3659C17.6105 1.41947 17.7143 1.48643 17.8147 1.56679C17.9152 1.64045 18.0123 1.7275 18.106 1.82795C18.1462 1.86813 18.1964 1.93174 18.2567 2.0188C18.3237 2.09915 18.4208 2.29335 18.548 2.60139C18.6819 2.90942 18.7723 3.24759 18.8192 3.6159C18.8728 4.04447 18.9129 4.50317 18.9397 4.99201C18.9732 5.47415 18.9933 5.8525 19 6.12706V6.52884V7.89491C19.0067 8.8659 18.9464 9.83688 18.8192 10.8079C18.7723 11.1762 18.6886 11.511 18.5681 11.8123C18.4475 12.107 18.3404 12.3112 18.2467 12.425L18.106 12.5958C18.0123 12.6963 17.9152 12.7867 17.8147 12.867C17.7143 12.9407 17.6105 13.0043 17.5033 13.0579C17.3962 13.1047 17.3025 13.1449 17.2221 13.1784C17.1417 13.2119 17.0446 13.2387 16.9308 13.2588C16.8237 13.2788 16.7433 13.2956 16.6897 13.309C16.6429 13.3157 16.5658 13.3257 16.4587 13.3391C16.3583 13.3458 16.3047 13.3492 16.298 13.3492C14.6172 13.4764 12.5179 13.54 10 13.54C8.61384 13.5266 7.40848 13.5065 6.38393 13.4797C5.36607 13.4463 4.69643 13.4195 4.375 13.3994L3.88281 13.3592L3.52121 13.319C3.28013 13.2855 3.09598 13.2521 2.96875 13.2186C2.84821 13.1851 2.67746 13.1148 2.45647 13.0076C2.24219 12.9005 2.05469 12.7632 1.89397 12.5958C1.85379 12.5556 1.80022 12.4954 1.73326 12.415C1.67299 12.3279 1.57589 12.1304 1.44196 11.8224C1.31473 11.5143 1.22768 11.1762 1.1808 10.8079C1.12723 10.3793 1.08371 9.92393 1.05022 9.44179C1.02344 8.95295 1.0067 8.57125 1 8.2967V7.89491V6.52884C0.993304 5.55786 1.05357 4.58688 1.1808 3.6159C1.22768 3.24759 1.31138 2.91612 1.43192 2.62148C1.55246 2.32014 1.6596 2.11255 1.75335 1.99871L1.89397 1.82795C1.98772 1.7275 2.08482 1.64045 2.18527 1.56679C2.28571 1.48643 2.38951 1.41947 2.49665 1.3659C2.60379 1.31232 2.69754 1.2688 2.7779 1.23532C2.85826 1.20183 2.95201 1.17505 3.05915 1.15496C3.17299 1.13487 3.25335 1.12148 3.30022 1.11478C3.3471 1.10139 3.42411 1.09134 3.53125 1.08465C3.63839 1.07125 3.69531 1.06456 3.70201 1.06456C5.38281 0.944021 7.48214 0.883753 10 0.883753Z" fill="#BDBDBD"/>
</svg>
